<svg xmlns="http://www.w3.org/2000/svg" xmlns:xlink="http://www.w3.org/1999/xlink" version="1.1" width="364.6pt" height="612.8pt" viewBox="0 0 364.6 612.8">
<g enable-background="new">
<g id="Layer-1" data-name="Camada 1">
<clipPath id="cp0">
<path transform="matrix(1,0,0,-1,0,612.8)" d="M 0 612.8 L 364.6 612.8 L 364.6 0 L 0 0 Z "/>
</clipPath>
<g clip-path="url(#cp0)">
<path transform="matrix(1,0,0,-1,360.2002,178.7002)" d="M 0 0 C 0 -98.7 -80 -178.7 -178.7 -178.7 C -277.4 -178.7 -357.4 -98.7 -357.4 0 C -357.4 98.7 -277.4 178.7 -178.7 178.7 C -80 178.7 0 98.7 0 0 "/>
<path transform="matrix(1,0,0,-1,21.7998,380.2998)" d="M 0 0 L 0 -58.601 L 46.6 0 L 74.5 0 L 31.5 -54.101 L 74.5 -108 L 46.5 -108 L 17.7 -71.7 L .1 -93.9 L .1 -108.101 L -21.8 -108.101 L -21.8 -.101 L 0 -.101 Z "/>
<path transform="matrix(1,0,0,-1,0,612.8)" d="M 133.1 124.5 L 111.100009 124.5 L 111.100009 232.5 L 133.1 232.5 Z "/>
<path transform="matrix(1,0,0,-1,151.7002,488.2998)" d="M 0 0 L .5 0 Z M 19.7 108 L 69.399 42.5 L 69.399 108 L 91.399 108 L 91.399 0 L 71.7 0 L 22 65.5 L 22 0 L 0 0 L 0 108 Z "/>
<path transform="matrix(1,0,0,-1,357.9004,391.4004)" d="M 0 0 L -11.301 -16.699 C -23.801 -8.5 -32.601 -7.6 -41 -7.6 C -58.601 -7.6 -75.601 -23.899 -75.601 -42.899 C -75.601 -61.899 -58.7 -78.199 -41 -78.199 C -29.9 -78.199 -23.2 -75.899 -15 -71.3 L -15 -55.899 L -29.301 -55.899 L -29.301 -34.6 L 5.3 -34.6 L 5.3 -81.899 C -4.801 -90 -16.2 -99.5 -41 -99.5 C -70.7 -99.5 -98.2 -77.899 -98.2 -42.899 C -98.2 -7.899 -70.7 13.7 -41 13.7 C -27 13.601 -13.101 9.2 0 0 "/>
<path transform="matrix(1,0,0,-1,8.7002,515.2998)" d="M 0 0 L 0 -28.8 L 0 -57.9 L 22.9 -57.9 C 40.1 -57.9 53.9 -46 53.9 -28.8 C 53.9 -11.601 40 .3 22.9 .3 L 0 .3 Z M 22.9 10.5 C 45.6 10.5 64.1 -6.101 64.1 -28.8 C 64.1 -49.101 49.4 -64.5 30 -67.601 L 66.7 -97.5 L 51.9 -97.5 L 15.9 -68.2 L -.1 -68.2 L -.1 -97.5 L -10.2 -97.5 L -10.2 -83.101 L -10.2 -72.3 L -10.2 -61.5 L -10.2 -48.2 L -10.2 10.5 Z "/>
<path transform="matrix(1,0,0,-1,0,612.8)" d="M 102.3 0 L 92.100009 0 L 92.100009 108 L 102.3 108 Z "/>
<path transform="matrix(1,0,0,-1,189.2002,504.7998)" d="M 0 0 L 0 -10.2 L -58.3 -10.2 L -58.3 -48.9 L -1.8 -48.9 L -1.8 -59.101 L -58.3 -59.101 L -58.3 -108 L -68.5 -108 L -68.5 0 Z "/>
<path transform="matrix(1,0,0,-1,218.5996,573.2998)" d="M 0 0 L 40.801 0 L 20.4 56 Z M 26.7 68.5 L 66.101 -39.5 L 55.301 -39.5 L 44.601 -10.2 L -3.6 -10.2 L -14.3 -39.5 L -25.1 -39.5 L 14.301 68.5 Z "/>
<path transform="matrix(1,0,0,-1,358.0996,511)" d="M 0 0 L -5.3 -8.7 C -12.8 -4.5 -19.699 -1.7 -28.6 -1.7 C -39.699 -1.7 -50.1 -8 -50.1 -19.1 C -50.1 -33.4 -35.6 -37.1 -25.399 -40.2 C -10.3 -44.4 5.7 -53.1 6.5 -72 C 6.5 -88.2 -6.399 -104.4 -29.3 -104.4 C -39.3 -104.4 -51.5 -101.5 -62.899 -93.8 L -57.399 -84.5 C -49.199 -89.7 -39.5 -93.1 -29.699 -93.3 C -14.699 -93.3 -4.699 -83.5 -4.699 -72 C -4.899 -58.9 -19.8 -52.6 -31.699 -49.5 C -45.399 -45.9 -61.3 -37.8 -61.3 -19.2 C -61.3 -3.5 -46.699 8.8 -28.6 8.8 C -16.1 8.8 -7.8 4.6 0 0 "/>
<path transform="matrix(1,0,0,-1,116.6001,199.5)" d="M 0 0 C 2.8 3.1 5.5 6.3 8.3 9.4 C 9.4 10.7 10.7 10.9 12 9.6 C 14.9 6.3 17.8 3 20.7 -.3 C 21.1 -.7 21.2 -1.4 21.5 -1.9 C 21.1 -2.5 20.9 -3.1 20.5 -3.5 C 17.7 -6.5 14.9 -9.5 12.2 -12.5 C 10.9 -14 9.6 -13.8 8.3 -12.4 C 5.6 -9.5 2.9 -6.6 .1 -3.7 C -1.2 -2.4 -1.2 -1.3 0 0 M 79.7 -23.2 C 92.2 -23.6 104.6 -24.6 117 -26.4 C 118.5 -26.6 119.8 -27.7 121.4 -26.9 C 123.1 -27.2 124.7 -27.4 126.4 -27.7 C 130.9 -28.8 135.4 -29.8 139.9 -30.9 C 141.7 -31.5 143.5 -32.2 145.4 -32.8 C 147 -33.5 148.7 -34.2 150.3 -34.9 C 151.7 -35.8 153.2 -36.7 154.6 -37.6 C 154.4 -39.5 152.7 -39.8 151.4 -40.5 C 148 -42.5 144.3 -43.8 140.5 -45 C 139.9 -45.2 139.3 -45.5 138.6 -45.7 C 136.8 -45.7 135.2 -46 133.8 -47.1 C 133.7 -47.7 133.6 -48.4 133.4 -49 C 133.5 -48.4 133.6 -47.7 133.8 -47.1 C 132.5 -46.5 131.3 -47.3 130 -47.5 C 130.1 -47.6 130.1 -47.7 130.2 -47.9 C 130.3 -48.1 130.4 -48.1 130.4 -48.2 C 130.3 -48.1 130.2 -48 130.2 -47.9 C 130.2 -47.8 130.1 -47.7 130 -47.5 C 129.6 -47.6 129.2 -47.7 128.9 -47.9 C 128.6 -48.7 128.1 -49.3 127.5 -49.7 C 128.1 -49.2 128.6 -48.6 128.9 -47.9 C 126.3 -48 123.9 -48.7 121.4 -49.4 C 113.8 -50.2 106.2 -51.3 98.5 -51.9 C 67.7 -54.4 37.1 -54 6.6 -48.8 C 5.9 -48.7 5.2 -48.8 4.5 -48.8 C 3.7 -48.7 2.8 -48.8 2.2 -48.5 C -.8 -46.8 -4.1 -46.9 -7.3 -46.3 C -7.4 -46.2 -7.6 -46.1 -7.8 -46.1 C -8.5 -45.2 -9.5 -45.5 -10.4 -45.4 C -11.2 -44.9 -12 -44.5 -12.8 -45.2 C -13.1 -43.3 -14.8 -43.8 -15.9 -43.3 C -18.6 -42.2 -21.3 -41.1 -23.8 -39.4 C -24.7 -38.8 -25.4 -38.2 -24.5 -37 C -21.1 -34.6 -17.1 -33.5 -13.6 -31.6 C -11.9 -32.4 -10.8 -30.6 -9.3 -30.6 C -6.2 -29.7 -3 -29.4 0 -28 C .7 -28.7 1.5 -28.3 2.3 -28.2 C 28.1 -23.3 53.8 -22.3 79.7 -23.2 M 51.2 11.3 C 55 18.4 58.7 25.6 62.5 32.7 C 63 33.7 63.5 34.8 64.8 34.9 C 66.3 35 66.8 33.7 67.4 32.6 C 71.1 25.5 74.8 18.5 78.6 11.4 C 79.5 9.8 79.6 8.5 78.2 7 C 74.4 2.8 70.8 -1.5 67.1 -5.7 C 66.6 -6.3 66 -7 65.4 -6.9 C 64.1 -7 63.5 -6.3 62.8 -5.6 C 59.1 -1.4 55.4 2.9 51.7 7.1 C 50.4 8.5 50.3 9.7 51.2 11.3 M 121.4 -25.9 L 121.4 -24.8 L 121.4 -25.9 M 109.5 .1 C 112.2 3.1 114.9 6.2 117.6 9.3 C 119 10.9 120.3 10.9 121.7 9.3 C 124.4 6.2 127 3.1 129.8 .1 C 131.1 -1.3 131 -2.5 129.7 -3.9 C 127.3 -6.5 124.6 -8.8 122.6 -11.8 C 123.1 -11.7 123.6 -11.7 124 -11.7 C 123.5 -11.7 123 -11.8 122.6 -11.8 C 121.7 -12 121.2 -12.6 120.9 -13.4 C 119.6 -13.7 118.6 -13.4 117.6 -12.4 C 115 -9.5 112.3 -6.7 109.7 -3.9 C 108.4 -2.5 108.1 -1.3 109.5 .1 M 126.1 -50.6 C 125.8 -50.7 125.4 -50.8 125 -50.8 C 125.4 -50.8 125.7 -50.7 126.1 -50.6 C 126.4 -50.5 126.8 -50.3 127.1 -50.1 C 126.8 -50.3 126.4 -50.5 126.1 -50.6 M -34.3 -28.2 C -34.3 -27.9 -34.4 -27.5 -34.6 -27.2 C -34.4 -27.6 -34.3 -27.9 -34.3 -28.2 M -37.3 -19.1 C -37 -21 -36.7 -22.9 -36.5 -24.8 C -35.7 -25.4 -35.2 -26.1 -34.8 -26.8 C -35.2 -26.1 -35.7 -25.5 -36.5 -24.8 C -36.7 -27.2 -35.1 -29.7 -36.9 -32 C -37.3 -32 -37.3 -32.3 -37.1 -32.7 C -38.3 -34.1 -38.4 -35.9 -38.5 -37.6 C -39.1 -42.5 -36.2 -45.6 -32.9 -48.6 C -32.3 -49.5 -31.7 -50.4 -30.5 -50.6 C -24.1 -55.2 -16.7 -57.2 -9.3 -59.1 C 7.9 -63.5 25.6 -65.4 43.3 -66.1 C 73.8 -67.4 104.1 -66.6 134.1 -60.2 C 143 -58.3 151.8 -56 159.7 -51 C 160.7 -50.6 161.7 -50.2 162.2 -49.2 C 162.7 -48.6 164.1 -48.6 163.7 -47.2 C 164.2 -47.3 164.5 -47 164.6 -46.5 C 167.7 -44.3 169.1 -40.2 168 -36.8 C 168.5 -35.7 168.2 -34.5 167.6 -33.7 C 164.6 -30.2 165.9 -26.3 166.3 -22.5 C 166.4 -21.7 166.5 -20.9 166.5 -20.1 C 166.9 -17 169 -15.1 171.2 -13.1 C 177 -7.8 177.4 -1 172.4 4.9 C 171.1 6.4 171.3 7.8 171.6 9.4 C 174.3 26.5 177 43.6 179.8 60.6 C 180.2 62.9 179.5 63.4 177.3 63.4 C 164.6 63.3 156.3 49.7 162.3 38.3 C 163.5 36 163 35.2 161 34.2 C 157.8 32.6 154.6 31 151.2 29.8 C 146.3 28.2 141.3 27.1 135.9 27 C 141.9 36.7 142.3 43.5 137.3 49.6 C 132.8 55.1 125.5 57.5 119.1 54.8 C 108.9 50.7 106.5 42.7 109.3 32.3 C 97.8 37.8 89.6 46.1 83.9 57 C 80.7 63.1 77.3 69 74 75 C 73.7 75.8 73 76.6 73.4 77.5 C 74.5 77.7 75.4 78.2 75.9 79.2 C 76.9 79.8 77.6 80.8 78.2 81.8 C 80.3 84 81.7 86.5 81.3 89.6 C 82.7 94.7 80.7 98.9 77.9 102.9 C 72.1 109.5 63.9 111 56.2 106.8 C 54.2 105.6 52.6 104 51.2 102.1 C 50.2 101.6 49.9 100.8 49.9 99.8 C 47.9 96.5 47.4 92.9 48.1 89.2 C 48.1 85.4 49.5 82.4 53.1 80.7 C 53.5 79.1 54.6 78.1 56.1 77.4 C 56.2 76.6 56.3 75.8 55.8 75 C 52.6 70.4 50.1 65.3 47.5 60.3 C 42.7 50.9 36.7 42.4 27.7 36.5 C 25.4 35 23.1 33.3 20.2 32.5 C 22.6 42.6 20 49.8 12.9 53.8 C 6.5 57.3 -1.5 56.1 -6.6 50.9 C -12.6 44.8 -12.6 37.9 -6.5 27.3 C -7.2 26.8 -8.1 27.1 -8.8 27.1 C -17 27.9 -24.6 30.3 -31.8 34.3 C -33.6 35.3 -33.9 36 -32.8 38 C -26.7 49.4 -34.7 63 -47.4 63.3 C -49.9 63.4 -50.5 62.6 -50.1 60.2 C -47.3 42.9 -44.6 25.6 -41.9 8.3 C -41.7 7 -41.8 6 -42.6 4.9 C -47.9 -1.9 -47.2 -8.7 -40.6 -14.2 C -38.8 -15.5 -37.7 -17 -37.3 -19.1 " fill="#ffffff"/>
</g>
</g>
</g>
</svg>
