<svg version="1.1" id="Camada_1" xmlns="http://www.w3.org/2000/svg" xmlns:xlink="http://www.w3.org/1999/xlink" x="0px" y="0px"
	 viewBox="0 0 247.4 368.9" style="enable-background:new 0 0 247.4 368.9;" xml:space="preserve">
<style type="text/css">
	.st0{fill:none;}
	.st1{fill:#FFFFFF;}
</style>
<path d="M123.7,159.8c0-0.3-0.1-0.4-0.2-0.7C123.6,159.4,123.7,159.7,123.7,159.8z"/>
<path d="M123.9,175.1c-0.3,0-0.5,0.1-0.7,0.2C123.5,175.2,123.7,175.2,123.9,175.1z"/>
<path class="st0" d="M200.1,97.6c-8.6,0-14.3,9.4-10.2,17.1c0.9,1.6,0.4,2.1-0.9,2.8c-2.2,1.1-4.4,2.2-6.7,3
	c-3.3,1.1-6.8,1.8-10.4,1.9c4.1-6.7,4.4-11.2,1-15.3c-3.1-3.8-8-5.3-12.4-3.6c-6.9,2.8-8.6,8.2-6.7,15.3
	c-7.9-3.8-13.4-9.4-17.3-16.8c-2.2-4.1-4.5-8.2-6.8-12.3c-0.2-0.5-0.6-1.1-0.4-1.8c0.8-0.1,1.4-0.4,1.8-1.1c0.7-0.4,1.1-1.1,1.6-1.8
	c1.4-1.5,2.4-3.2,2.1-5.3c1-3.4-0.4-6.3-2.4-9c-3.9-4.5-9.6-5.5-14.7-2.6c-1.4,0.8-2.5,1.9-3.4,3.2c-0.6,0.4-0.9,0.9-0.9,1.6
	c-1.4,2.3-1.8,4.6-1.2,7.3c0,2.6,1,4.6,3.4,5.8c0.3,1.1,1.1,1.8,2,2.2c0.1,0.5,0.2,1.1-0.2,1.6c-2.2,3.2-3.9,6.6-5.6,10
	c-3.2,6.4-7.4,12.2-13.4,16.2c-1.6,1.1-3.2,2.2-5.1,2.7c1.7-6.8-0.1-11.8-5-14.5c-4.4-2.4-9.8-1.6-13.3,2c-4.1,4.1-4,8.9,0,16
	c-0.5,0.4-1.1,0.2-1.6,0.1c-5.5-0.5-10.8-2.2-15.6-4.9c-1.2-0.7-1.4-1.2-0.7-2.5c4.1-7.7-1.3-17-9.9-17.2c-1.8,0-2.1,0.4-1.8,2.1
	c1.9,11.8,3.7,23.5,5.6,35.3c0.2,0.9,0.1,1.6-0.5,2.3c-3.6,4.6-3.2,9.3,1.4,13c1.1,0.8,1.8,1.8,2,3.2c0.2,1.3,0.4,2.5,0.6,3.9
	c-0.1,1.7,1,3.3-0.3,4.9c-0.3,0-0.3,0.2-0.2,0.4c-0.8,1-0.9,2.2-1,3.3c-0.4,3.3,1.6,5.4,3.8,7.5c0.4,0.6,0.9,1.2,1.7,1.4
	c4.3,3.1,9.4,4.5,14.5,5.8c11.8,3,23.8,4.3,35.8,4.8c20.7,0.9,41.4,0.4,61.8-3.9c6.1-1.3,12.1-2.8,17.4-6.2c0.7-0.3,1.3-0.5,1.8-1.2
	c0.4-0.4,1.3-0.4,1-1.3c0.4,0.1,0.5-0.1,0.6-0.4c2.1-1.5,3.1-4.3,2.3-6.6c0.4-0.8,0.2-1.6-0.3-2.1c-2-2.4-1.2-5-0.9-7.6
	c0.1-0.5,0.1-1.1,0.2-1.7c0.3-2.1,1.8-3.4,3.2-4.7c3.9-3.6,4.2-8.2,0.8-12.3c-0.9-1.1-0.8-2-0.6-3.1c1.8-11.7,3.7-23.2,5.6-34.9
	C202,97.9,201.6,97.6,200.1,97.6z"/>
<g>
	<path class="st1" d="M122.1,144.5c0.4,0.4,0.9,1,1.8,0.9c0.5,0,0.9-0.4,1.2-0.9c2.5-2.9,5-5.9,7.5-8.7c1-1.1,0.9-1.8,0.3-3
		c-2.6-4.7-5.1-9.6-7.6-14.4c-0.4-0.8-0.7-1.6-1.8-1.6c-0.9,0-1.2,0.8-1.6,1.5c-2.6,4.8-5.1,9.7-7.7,14.6c-0.5,1.1-0.5,1.9,0.4,2.9
		C117.1,138.7,119.6,141.6,122.1,144.5z"/>
	<path class="st1" d="M84.8,149.2c0.9,0.9,1.8,1,2.6,0c1.9-2.1,3.9-4.1,5.7-6.2c0.3-0.3,0.4-0.6,0.7-1.1c-0.2-0.4-0.3-0.9-0.5-1.1
		c-1.9-2.3-3.9-4.6-5.9-6.8c-0.8-1-1.7-0.8-2.5,0.1c-1.8,2.1-3.7,4.3-5.6,6.4c-0.9,0.9-0.8,1.7-0.1,2.6
		C81.1,145.2,82.9,147.1,84.8,149.2z"/>
	<path class="st1" d="M154.2,143.3c1.8,1.9,3.7,3.9,5.4,5.8c0.6,0.7,1.3,1,2.2,0.7c0.2-0.6,0.5-1.1,1.1-1.1c1.3-2.1,3.2-3.7,4.8-5.4
		c0.8-1,0.9-1.8,0-2.7c-1.9-2-3.7-4.1-5.5-6.2c-1-1.1-1.8-1.1-2.8,0c-1.8,2.1-3.7,4.3-5.5,6.3C153,141.5,153.2,142.4,154.2,143.3z"
		/>
	<path class="st1" d="M178.4,163c-1.2-0.4-2.5-0.9-3.7-1.3c-3.1-0.7-6.2-1.5-9.2-2.2c-1.1-0.2-2.3-0.4-3.4-0.5c-1.1,0.5-2-0.2-3-0.4
		c-8.4-1.2-17-1.9-25.5-2.2c-17.6-0.6-35.1,0.1-52.5,3.4c-0.5,0.1-1.1,0.4-1.6-0.1c-2,0.9-4.2,1.1-6.3,1.8c-1.1,0-1.8,1.2-3,0.7
		c-2.5,1.3-5.2,2.1-7.5,3.7c-0.6,0.7-0.2,1.1,0.4,1.6c1.7,1.1,3.5,1.8,5.4,2.6c0.8,0.4,1.9,0.1,2.1,1.3c0.6-0.4,1.1-0.2,1.7,0.2
		c0.6,0.2,1.3-0.1,1.8,0.5c0.2,0.1,0.3,0.1,0.4,0.2c2.1,0.4,4.4,0.4,6.4,1.5c0.4,0.2,1.1,0.1,1.6,0.2c0.4,0,1-0.1,1.4,0
		c20.8,3.5,41.7,3.8,62.7,2.1c5.2-0.4,10.4-1.1,15.6-1.7c1.7-0.5,3.3-1,5.1-1.1c0.3-0.1,0.5-0.2,0.8-0.3c0.8-0.1,1.7-0.6,2.5-0.3
		c1.1-0.8,2.1-1,3.3-1c0.4-0.1,0.8-0.3,1.2-0.4c2.5-0.9,5-1.8,7.4-3.1c0.8-0.5,1.9-0.8,2.1-2c-1-0.6-1.9-1.2-2.9-1.8
		C180.6,163.9,179.6,163.5,178.4,163z"/>
</g>
<path d="M123.4,174.6c0.1-0.1,0.2-0.2,0.3-0.2C123.6,174.4,123.5,174.5,123.4,174.6z"/>
<path class="st1" d="M123.6,3.1C55.5,3.1,0.2,58.3,0.2,126.4s55.2,123.4,123.4,123.4s123.3-55.2,123.3-123.4S191.7,3.1,123.6,3.1z
	 M201.7,100.6c-1.9,11.7-3.8,23.2-5.6,34.9c-0.2,1.1-0.3,2,0.6,3.1c3.4,4,3.2,8.7-0.8,12.3c-1.5,1.3-3,2.6-3.2,4.7
	c-0.1,0.6-0.1,1.1-0.2,1.7c-0.4,2.6-1.1,5.3,0.9,7.6c0.4,0.5,0.6,1.3,0.3,2.1c0.8,2.3-0.2,5.1-2.3,6.6c-0.1,0.4-0.3,0.5-0.6,0.4
	c0.4,0.9-0.6,0.9-1,1.3c-0.4,0.7-1.1,1-1.8,1.2c-5.3,3.4-11.3,4.9-17.4,6.2c-20.4,4.3-41.1,4.8-61.8,3.9c-12-0.5-24-1.8-35.8-4.8
	c-5.1-1.3-10.2-2.7-14.5-5.8c-0.8-0.2-1.2-0.8-1.7-1.4c-2.2-2-4.2-4.1-3.8-7.5c0.1-1.1,0.2-2.4,1-3.3c-0.1-0.3-0.1-0.4,0.2-0.4
	c1.2-1.6,0.2-3.2,0.3-4.9c-0.3-1.3-0.4-2.5-0.6-3.9c-0.3-1.4-1-2.5-2-3.2c-4.6-3.7-5-8.3-1.4-13c0.6-0.7,0.7-1.4,0.5-2.3
	c-1.9-11.8-3.7-23.6-5.6-35.3c-0.3-1.7,0.1-2.1,1.8-2.1c8.6,0.2,14,9.5,9.9,17.2c-0.7,1.3-0.5,1.8,0.7,2.5
	c4.8,2.7,10.1,4.4,15.6,4.9c0.5,0.1,1.1,0.3,1.6-0.1c-4-7.2-4.1-11.9,0-16c3.5-3.6,8.9-4.4,13.3-2c4.9,2.6,6.7,7.6,5,14.5
	c1.9-0.5,3.5-1.7,5.1-2.7c6.1-4,10.2-9.8,13.4-16.2c1.8-3.4,3.4-6.8,5.6-10c0.4-0.5,0.3-1.1,0.2-1.6c-1-0.4-1.8-1.1-2-2.2
	c-2.5-1.1-3.4-3.2-3.4-5.8c-0.5-2.6-0.2-5,1.2-7.3c0-0.7,0.3-1.2,0.9-1.6c1-1.2,2-2.4,3.4-3.2c5.2-2.9,10.8-1.8,14.7,2.6
	c1.9,2.7,3.3,5.6,2.4,9c0.3,2.2-0.7,3.9-2.1,5.3c-0.4,0.7-0.9,1.3-1.6,1.8c-0.4,0.7-1,1.1-1.8,1.1c-0.3,0.7,0.2,1.2,0.4,1.8
	c2.3,4.1,4.6,8.2,6.8,12.3c3.9,7.4,9.4,13,17.3,16.8c-1.9-7.1-0.3-12.5,6.7-15.3c4.4-1.8,9.3-0.2,12.4,3.6c3.4,4.1,3.2,8.7-1,15.3
	c3.7-0.1,7.1-0.9,10.4-1.9c2.3-0.8,4.5-1.8,6.7-3c1.3-0.7,1.8-1.2,0.9-2.8c-4.1-7.7,1.6-17.1,10.2-17.1
	C201.6,98.6,202,99,201.7,100.6z"/>
<g>
	<path class="st1" d="M15.1,295.4v39.9l31.7-39.9h19l-29.3,36.8l29.3,36.7H46.7l-19.6-24.7l-12,15.1v9.7H0.2v-73.5L15.1,295.4
		L15.1,295.4z"/>
	<path class="st1" d="M90.8,295.4v73.5h-15v-73.5H90.8z"/>
	<path class="st1" d="M116.9,295.4l33.8,44.6v-44.6h15v73.5h-13.4l-33.8-44.6v44.6h-15v-73.5H116.9z M101.4,371.6h0.4H101.4z"/>
	<path class="st1" d="M243.8,302.9l-7.7,11.4c-8.5-5.6-14.5-6.2-20.2-6.2c-12,0-23.5,11.1-23.5,24s11.5,24,23.5,24
		c7.6,0,12.1-1.6,17.7-4.7V341h-9.7v-14.5h23.5v32.2c-6.9,5.5-14.6,12-31.5,12c-20.2,0-38.9-14.7-38.9-38.5s18.7-38.5,38.9-38.5
		C225.4,293.7,234.9,296.7,243.8,302.9z"/>
</g>
</svg>
